<?xml version="1.0" encoding="UTF-8"?>
<svg width="652px" height="1001px" viewBox="0 0 652 1001" version="1.1" xmlns="http://www.w3.org/2000/svg" xmlns:xlink="http://www.w3.org/1999/xlink">
    <!-- Generator: Sketch 62 (91390) - https://sketch.com -->
    <title>Rectangle</title>
    <desc>Created with Sketch.</desc>
    <g id="Page-1" stroke="none" stroke-width="1" fill="none" fill-rule="evenodd">
        <g id="Desktop-HD" transform="translate(-17.000000, -19.000000)" fill="#EAEAEA">
            <path d="M428.801554,19 C428.801554,19 428.801554,19 428.801554,19 C519.50685,19 596.50283,50.8518651 659.789495,114.555595 L659.789497,114.555594 C661.210309,115.985769 662.038787,117.899636 662.109212,119.914369 C670.119122,349.061805 670.082718,499.552699 662,571.387051 C654.353804,639.341856 583.938635,624.263473 583.938635,679.338742 C583.938635,815.782988 607.403206,925.297442 654.33235,1007.8821 C656.515239,1011.72348 655.17076,1016.60712 651.329378,1018.79 C649.971636,1019.56155 648.417765,1019.91884 646.859389,1019.81781 L148.470153,987.508918 C146.723063,987.395666 145.061362,986.712418 143.739914,985.563974 C66.4247361,918.37089 27.7671471,816.295813 27.7671471,679.338742 C27.7671471,617.041544 24.5979272,544.71224 18.2594874,462.350833 L18.2595261,462.35083 C0.81017481,235.614729 170.470607,37.663308 397.206708,20.2139568 C407.718897,19.4049507 418.258281,19 428.801554,19 Z" id="Rectangle"></path>
        </g>
    </g>
</svg>