<?xml version="1.0" encoding="UTF-8"?>
<svg width="1440px" height="2503px" viewBox="0 0 1440 2503" version="1.1" xmlns="http://www.w3.org/2000/svg" xmlns:xlink="http://www.w3.org/1999/xlink">
    <!-- Generator: Sketch 62 (91390) - https://sketch.com -->
    <title>Rectangle</title>
    <desc>Created with Sketch.</desc>
    <g id="Page-1" stroke="none" stroke-width="1" fill="none" fill-rule="evenodd">
        <g id="Desktop-HD" fill="#EAEAEA">
            <path d="M957.762766,337.06907 C777.698629,35.0549402 769.004773,-77.3014166 931.681198,1.88293825e-13 C1061.83675,61.8479828 1193.50941,126.684877 1326.69917,194.510682 L1326.69919,194.510647 C1456.59968,260.661422 1508.27904,419.592381 1442.12827,549.492879 C1421.86396,589.285965 1391.83492,623.287218 1354.85156,648.314462 C1354.85156,648.314462 1354.85156,648.314462 1354.85156,648.314462 C1073.9719,838.390327 530.377085,874.331196 518.543937,998.873444 C502.309135,1169.74251 1354.85156,956.728122 1354.85156,1095.21222 C1354.85156,1313.83085 940.194545,1835.22403 957.762766,2136.81762 C964.626957,2254.65516 1158.55907,2383.20015 1539.5591,2522.45259 L1539.5591,2522.45258 C1543.70889,2523.9693 1545.84342,2528.56291 1544.32671,2532.71271 C1542.9722,2536.41869 1539.11791,2538.58363 1535.24834,2537.81198 C1155.92773,2462.17029 877.461217,2424.34944 699.848807,2424.34944 C508.089031,2424.34944 266.615889,2468.43534 -24.5706186,2556.60713 L-24.570619,2556.60713 C-28.7992862,2557.88757 -33.2653064,2555.49757 -34.5457544,2551.2689 C-35.0058045,2549.74959 -35.0034522,2548.12776 -34.5389968,2546.60979 C41.9430066,2296.64517 80.1840083,2001.2385 80.1840083,1660.38977 C80.1840083,1312.97729 372.710261,871.870392 957.762766,337.06907 L957.762766,337.06907 Z" id="Rectangle"></path>
        </g>
    </g>
</svg>